<svg xmlns="http://www.w3.org/2000/svg" width="1600" height="760" viewBox="0 0 1600 760"><rect width="1600" height="760" fill="#f8fafc"/>
<defs><marker id="a" markerWidth="10" markerHeight="8" refX="9" refY="4" orient="auto"><polygon points="0,0 10,4 0,8" fill="#4f46e5"/></marker></defs>
<text x="800" y="65" text-anchor="middle" font-size="42" font-family="Arial" font-weight="bold">Data Lifecycle: Collection → Training → Runtime</text>
<rect x="40" y="170" width="220" height="90" rx="12" fill="#dbeafe" stroke="#3b82f6"/><text x="150" y="225" text-anchor="middle" font-size="30" font-family="Arial" font-weight="bold">MT5 Feed</text>
<rect x="320" y="170" width="220" height="90" rx="12" fill="#ecfccb" stroke="#84cc16"/><text x="430" y="225" text-anchor="middle" font-size="30" font-family="Arial" font-weight="bold">DataFetcher</text>
<rect x="600" y="120" width="220" height="90" rx="12" fill="#ede9fe" stroke="#8b5cf6"/><text x="710" y="175" text-anchor="middle" font-size="30" font-family="Arial" font-weight="bold">bars</text>
<rect x="600" y="260" width="220" height="90" rx="12" fill="#ecfccb" stroke="#84cc16"/><text x="710" y="315" text-anchor="middle" font-size="28" font-family="Arial" font-weight="bold">features eng.</text>
<rect x="900" y="260" width="220" height="90" rx="12" fill="#ede9fe" stroke="#8b5cf6"/><text x="1010" y="315" text-anchor="middle" font-size="30" font-family="Arial" font-weight="bold">features</text>
<rect x="600" y="400" width="220" height="90" rx="12" fill="#ecfccb" stroke="#84cc16"/><text x="710" y="455" text-anchor="middle" font-size="28" font-family="Arial" font-weight="bold">labeling</text>
<rect x="900" y="400" width="220" height="90" rx="12" fill="#ede9fe" stroke="#8b5cf6"/><text x="1010" y="455" text-anchor="middle" font-size="30" font-family="Arial" font-weight="bold">labels</text>
<rect x="1160" y="260" width="360" height="100" rx="12" fill="#ecfccb" stroke="#84cc16"/><text x="1340" y="305" text-anchor="middle" font-size="28" font-family="Arial" font-weight="bold">scripts/train_model.py</text><text x="1340" y="335" text-anchor="middle" font-size="28" font-family="Arial" font-weight="bold">train_all_symbols.py</text>
<rect x="1160" y="430" width="360" height="90" rx="12" fill="#fee2e2" stroke="#ef4444"/><text x="1340" y="485" text-anchor="middle" font-size="30" font-family="Arial" font-weight="bold">models/candidates/*.joblib</text>
<rect x="1160" y="580" width="360" height="90" rx="12" fill="#dbeafe" stroke="#3b82f6"/><text x="1340" y="635" text-anchor="middle" font-size="30" font-family="Arial" font-weight="bold">MLModelRegistry → MLStrategy</text>
<line x1="260" y1="215" x2="320" y2="215" stroke="#4f46e5" stroke-width="4" marker-end="url(#a)"/>
<line x1="540" y1="215" x2="600" y2="165" stroke="#4f46e5" stroke-width="4" marker-end="url(#a)"/>
<line x1="710" y1="210" x2="710" y2="260" stroke="#4f46e5" stroke-width="4" marker-end="url(#a)"/>
<line x1="820" y1="305" x2="900" y2="305" stroke="#4f46e5" stroke-width="4" marker-end="url(#a)"/>
<line x1="710" y1="210" x2="710" y2="400" stroke="#4f46e5" stroke-width="4" marker-end="url(#a)"/>
<line x1="820" y1="445" x2="900" y2="445" stroke="#4f46e5" stroke-width="4" marker-end="url(#a)"/>
<line x1="1120" y1="305" x2="1160" y2="305" stroke="#4f46e5" stroke-width="4" marker-end="url(#a)"/>
<line x1="1120" y1="445" x2="1160" y2="305" stroke="#4f46e5" stroke-width="4" marker-end="url(#a)"/>
<line x1="1340" y1="360" x2="1340" y2="430" stroke="#4f46e5" stroke-width="4" marker-end="url(#a)"/>
<line x1="1340" y1="520" x2="1340" y2="580" stroke="#4f46e5" stroke-width="4" marker-end="url(#a)"/>
</svg>