<svg xmlns="http://www.w3.org/2000/svg" width="1400" height="900" viewBox="0 0 1400 900"><rect width="1400" height="900" fill="#f8fafc"/>
<defs><marker id="a" markerWidth="10" markerHeight="8" refX="9" refY="4" orient="auto"><polygon points="0,0 10,4 0,8" fill="#334155"/></marker></defs>
<text x="700" y="70" text-anchor="middle" font-size="42" font-family="Arial" font-weight="bold">Module Map (What to Read)</text>
<circle cx="700" cy="430" r="95" fill="#f59e0b" stroke="#b45309" stroke-width="4"/><text x="700" y="420" text-anchor="middle" font-size="38" font-family="Arial" fill="white" font-weight="bold">tradlab</text><text x="700" y="462" text-anchor="middle" font-size="26" font-family="Arial" fill="white">root</text>
<rect x="120" y="120" width="240" height="120" rx="14" fill="#dbeafe" stroke="#334155" stroke-width="2"/><text x="240" y="165" text-anchor="middle" font-size="34" font-family="Arial" fill="#0f172a" font-weight="bold">core/</text><text x="240" y="202" text-anchor="middle" font-size="24" font-family="Arial" fill="#0f172a">main, orchestrator</text><line x1="700" y1="430" x2="240" y2="240" stroke="#334155" stroke-width="3" marker-end="url(#a)"/><rect x="1040" y="120" width="240" height="120" rx="14" fill="#dcfce7" stroke="#334155" stroke-width="2"/><text x="1160" y="165" text-anchor="middle" font-size="34" font-family="Arial" fill="#0f172a" font-weight="bold">strategies/</text><text x="1160" y="202" text-anchor="middle" font-size="24" font-family="Arial" fill="#0f172a">rsi, breakout, ml</text><line x1="700" y1="430" x2="1160" y2="240" stroke="#334155" stroke-width="3" marker-end="url(#a)"/><rect x="120" y="650" width="240" height="120" rx="14" fill="#fee2e2" stroke="#334155" stroke-width="2"/><text x="240" y="695" text-anchor="middle" font-size="34" font-family="Arial" fill="#0f172a" font-weight="bold">execution</text><text x="240" y="732" text-anchor="middle" font-size="24" font-family="Arial" fill="#0f172a">risk + trade exec</text><line x1="700" y1="430" x2="240" y2="650" stroke="#334155" stroke-width="3" marker-end="url(#a)"/><rect x="1040" y="650" width="240" height="120" rx="14" fill="#ede9fe" stroke="#334155" stroke-width="2"/><text x="1160" y="695" text-anchor="middle" font-size="34" font-family="Arial" fill="#0f172a" font-weight="bold">scripts/</text><text x="1160" y="732" text-anchor="middle" font-size="24" font-family="Arial" fill="#0f172a">train + backtest</text><line x1="700" y1="430" x2="1160" y2="650" stroke="#334155" stroke-width="3" marker-end="url(#a)"/><rect x="580" y="730" width="240" height="120" rx="14" fill="#fef3c7" stroke="#334155" stroke-width="2"/><text x="700" y="775" text-anchor="middle" font-size="34" font-family="Arial" fill="#0f172a" font-weight="bold">interface</text><text x="700" y="812" text-anchor="middle" font-size="24" font-family="Arial" fill="#0f172a">gui + controller</text><line x1="700" y1="430" x2="700" y2="730" stroke="#334155" stroke-width="3" marker-end="url(#a)"/></svg>