<svg xmlns="http://www.w3.org/2000/svg" width="1600" height="1000" viewBox="0 0 1600 1000"><rect width="1600" height="1000" fill="#f8fafc"/>
<text x="800" y="60" text-anchor="middle" font-size="44" font-family="Arial" font-weight="bold" fill="#0f172a">Runtime Orchestration Loop</text>
<defs><marker id="a" markerWidth="10" markerHeight="8" refX="9" refY="4" orient="auto"><polygon points="0,0 10,4 0,8" fill="#2563eb"/></marker></defs>
<line x1="120" y1="120" x2="120" y2="940" stroke="#cbd5e1" stroke-width="2"/><rect x="30" y="120" width="180" height="46" rx="8" fill="#1e3a8a"/><text x="120" y="151" text-anchor="middle" font-family="Arial" font-size="22" fill="white" font-weight="bold">GUI</text><line x1="360" y1="120" x2="360" y2="940" stroke="#cbd5e1" stroke-width="2"/><rect x="270" y="120" width="180" height="46" rx="8" fill="#1e3a8a"/><text x="360" y="151" text-anchor="middle" font-family="Arial" font-size="22" fill="white" font-weight="bold">Orchestrator</text><line x1="600" y1="120" x2="600" y2="940" stroke="#cbd5e1" stroke-width="2"/><rect x="510" y="120" width="180" height="46" rx="8" fill="#1e3a8a"/><text x="600" y="151" text-anchor="middle" font-family="Arial" font-size="22" fill="white" font-weight="bold">Pipeline</text><line x1="840" y1="120" x2="840" y2="940" stroke="#cbd5e1" stroke-width="2"/><rect x="750" y="120" width="180" height="46" rx="8" fill="#1e3a8a"/><text x="840" y="151" text-anchor="middle" font-family="Arial" font-size="22" fill="white" font-weight="bold">DB</text><line x1="1080" y1="120" x2="1080" y2="940" stroke="#cbd5e1" stroke-width="2"/><rect x="990" y="120" width="180" height="46" rx="8" fill="#1e3a8a"/><text x="1080" y="151" text-anchor="middle" font-family="Arial" font-size="22" fill="white" font-weight="bold">Ensemble</text><line x1="1320" y1="120" x2="1320" y2="940" stroke="#cbd5e1" stroke-width="2"/><rect x="1230" y="120" width="180" height="46" rx="8" fill="#1e3a8a"/><text x="1320" y="151" text-anchor="middle" font-family="Arial" font-size="22" fill="white" font-weight="bold">Risk/Exec</text>
<rect x="320" y="200" width="80" height="640" fill="#dbeafe" opacity="0.4"/>
<line x1="120" y1="220" x2="360" y2="220" stroke="#2563eb" stroke-width="3" marker-end="url(#a)"/><text x="240" y="210" font-size="20" text-anchor="middle" font-family="Arial">start()</text>
<line x1="360" y1="280" x2="600" y2="280" stroke="#2563eb" stroke-width="3" marker-end="url(#a)"/><text x="480" y="270" font-size="20" text-anchor="middle" font-family="Arial">refresh bars</text>
<line x1="600" y1="340" x2="840" y2="340" stroke="#2563eb" stroke-width="3" marker-end="url(#a)"/><text x="720" y="330" font-size="20" text-anchor="middle" font-family="Arial">UPSERT bars/features</text>
<line x1="360" y1="400" x2="1080" y2="400" stroke="#2563eb" stroke-width="3" marker-end="url(#a)"/><text x="720" y="390" font-size="20" text-anchor="middle" font-family="Arial">evaluate strategies</text>
<line x1="1080" y1="460" x2="360" y2="460" stroke="#2563eb" stroke-width="3" marker-end="url(#a)"/><text x="720" y="450" font-size="20" text-anchor="middle" font-family="Arial">BUY/SELL/HOLD + confidence</text>
<rect x="430" y="500" width="220" height="58" rx="10" fill="#e5e7eb" stroke="#9ca3af"/><text x="540" y="538" text-anchor="middle" font-family="Arial" font-size="28" font-weight="bold">HOLD path</text>
<rect x="700" y="500" width="240" height="58" rx="10" fill="#dcfce7" stroke="#22c55e"/><text x="820" y="538" text-anchor="middle" font-family="Arial" font-size="28" font-weight="bold">BUY/SELL path</text>
<line x1="820" y1="560" x2="1320" y2="560" stroke="#2563eb" stroke-width="3" marker-end="url(#a)"/><text x="1070" y="550" font-size="20" text-anchor="middle" font-family="Arial">validate risk + execute</text>
<line x1="1320" y1="620" x2="840" y2="620" stroke="#2563eb" stroke-width="3" marker-end="url(#a)"/><text x="1080" y="610" font-size="20" text-anchor="middle" font-family="Arial">log open/close events</text>
<line x1="360" y1="700" x2="1320" y2="700" stroke="#2563eb" stroke-width="3" marker-end="url(#a)"/><text x="840" y="690" font-size="20" text-anchor="middle" font-family="Arial">trailing stops + auto-close profits</text>
<line x1="120" y1="880" x2="360" y2="880" stroke="#2563eb" stroke-width="3" marker-end="url(#a)"/><text x="240" y="870" font-size="20" text-anchor="middle" font-family="Arial">stop()</text>
</svg>