<svg xmlns="http://www.w3.org/2000/svg" width="1600" height="950" viewBox="0 0 1600 950">
<rect width="1600" height="950" fill="#f2f4f7"/>
<defs><marker id="arr" markerWidth="10" markerHeight="8" refX="9" refY="4" orient="auto"><polygon points="0,0 10,4 0,8" fill="#e58d00"/></marker></defs>
<circle cx="800" cy="95" r="82" fill="#f5a000" stroke="#c97f00" stroke-width="4"/><text x="800" y="78" font-size="42" fill="white" text-anchor="middle" font-family="Arial" font-weight="bold">TRADING</text><text x="800" y="126" font-size="42" fill="white" text-anchor="middle" font-family="Arial" font-weight="bold">ENSEMBLE</text>
<path d="M360 150 C360 185 320 185 320 220" stroke="#e58d00" stroke-width="4" fill="none" marker-end="url(#arr)"/>
<path d="M650 145 C650 180 610 180 610 220" stroke="#e58d00" stroke-width="4" fill="none" marker-end="url(#arr)"/>
<path d="M950 145 C950 180 990 180 990 220" stroke="#e58d00" stroke-width="4" fill="none" marker-end="url(#arr)"/>
<path d="M1240 150 C1240 185 1280 185 1280 220" stroke="#e58d00" stroke-width="4" fill="none" marker-end="url(#arr)"/>
<rect x="40" y="220" width="320" height="680" rx="12" fill="#f8fafc" stroke="#1f4f75" stroke-width="3"/><rect x="40" y="220" width="320" height="58" rx="12" fill="#2a6288"/><text x="200" y="258" font-size="40" fill="white" text-anchor="middle" font-family="Arial" font-weight="bold">RSI EMA</text><rect x="430" y="220" width="320" height="680" rx="12" fill="#f8fafc" stroke="#1f4f75" stroke-width="3"/><rect x="430" y="220" width="320" height="58" rx="12" fill="#2a6288"/><text x="590" y="258" font-size="40" fill="white" text-anchor="middle" font-family="Arial" font-weight="bold">BREAKOUT</text><rect x="820" y="220" width="320" height="680" rx="12" fill="#f8fafc" stroke="#1f4f75" stroke-width="3"/><rect x="820" y="220" width="320" height="58" rx="12" fill="#2a6288"/><text x="980" y="258" font-size="40" fill="white" text-anchor="middle" font-family="Arial" font-weight="bold">BOOM SPIKE</text><rect x="1210" y="220" width="320" height="680" rx="12" fill="#f8fafc" stroke="#1f4f75" stroke-width="3"/><rect x="1210" y="220" width="320" height="58" rx="12" fill="#2a6288"/><text x="1370" y="258" font-size="40" fill="white" text-anchor="middle" font-family="Arial" font-weight="bold">ML</text>
<rect x="85" y="310" width="230" height="58" rx="12" fill="#67a357"/><text x="200" y="350" text-anchor="middle" fill="white" font-family="Arial" font-size="42" font-weight="bold">BUY</text>
<text x="70" y="420" font-size="34" font-family="Arial" fill="#1f2937">• RSI low</text><text x="70" y="470" font-size="34" font-family="Arial" fill="#1f2937">• Fast EMA &gt; Slow EMA</text>
<rect x="85" y="540" width="230" height="58" rx="12" fill="#d9534f"/><text x="200" y="580" text-anchor="middle" fill="white" font-family="Arial" font-size="42" font-weight="bold">SELL</text>
<text x="70" y="650" font-size="34" font-family="Arial" fill="#1f2937">• RSI high</text><text x="70" y="700" font-size="34" font-family="Arial" fill="#1f2937">• Fast EMA &lt; Slow EMA</text>
<rect x="110" y="810" width="180" height="58" rx="10" fill="#d1d5db"/><text x="200" y="850" text-anchor="middle" fill="#111827" font-family="Arial" font-size="42" font-weight="bold">HOLD</text>

<rect x="475" y="310" width="230" height="58" rx="12" fill="#67a357"/><text x="590" y="350" text-anchor="middle" fill="white" font-family="Arial" font-size="42" font-weight="bold">BUY</text>
<text x="460" y="420" font-size="34" font-family="Arial" fill="#1f2937">• Close above range high</text><text x="460" y="470" font-size="34" font-family="Arial" fill="#1f2937">• Bullish trend context</text>
<rect x="475" y="540" width="230" height="58" rx="12" fill="#d9534f"/><text x="590" y="580" text-anchor="middle" fill="white" font-family="Arial" font-size="42" font-weight="bold">SELL</text>
<text x="460" y="650" font-size="34" font-family="Arial" fill="#1f2937">• Close below range low</text><text x="460" y="700" font-size="34" font-family="Arial" fill="#1f2937">• Bearish trend context</text>
<rect x="500" y="810" width="180" height="58" rx="10" fill="#d1d5db"/><text x="590" y="850" text-anchor="middle" fill="#111827" font-family="Arial" font-size="42" font-weight="bold">HOLD</text>

<rect x="860" y="310" width="240" height="58" rx="12" fill="#67a357"/><text x="980" y="350" text-anchor="middle" fill="white" font-family="Arial" font-size="34" font-weight="bold">TREND BUY</text>
<text x="850" y="430" font-size="34" font-family="Arial" fill="#1f2937">• H4 trend up</text><text x="850" y="480" font-size="34" font-family="Arial" fill="#1f2937">• Impulse intact</text>
<rect x="860" y="560" width="240" height="58" rx="12" fill="#d9534f"/><text x="980" y="600" text-anchor="middle" fill="white" font-family="Arial" font-size="34" font-weight="bold">SPIKE SELL</text>
<text x="850" y="680" font-size="34" font-family="Arial" fill="#1f2937">• Compression</text><text x="850" y="730" font-size="34" font-family="Arial" fill="#1f2937">• Exhaustion wick</text>
<rect x="890" y="810" width="180" height="58" rx="10" fill="#d1d5db"/><text x="980" y="850" text-anchor="middle" fill="#111827" font-family="Arial" font-size="42" font-weight="bold">HOLD</text>

<rect x="1250" y="330" width="240" height="80" rx="12" fill="#e8f1f8" stroke="#a7bfd3"/><text x="1370" y="380" text-anchor="middle" fill="#1f2937" font-family="Arial" font-size="32" font-weight="bold">MODEL INPUT</text>
<rect x="1250" y="510" width="240" height="80" rx="12" fill="#e8f1f8" stroke="#a7bfd3"/><text x="1370" y="560" text-anchor="middle" fill="#1f2937" font-family="Arial" font-size="32" font-weight="bold">TRAINED MODEL</text>
<line x1="1370" y1="410" x2="1370" y2="510" stroke="#6b7280" stroke-width="4" marker-end="url(#arr)"/>
<rect x="1250" y="700" width="70" height="55" rx="8" fill="#67a357"/><text x="1285" y="738" text-anchor="middle" fill="white" font-family="Arial" font-size="28" font-weight="bold">BUY</text>
<rect x="1335" y="700" width="90" height="55" rx="8" fill="#d9534f"/><text x="1380" y="738" text-anchor="middle" fill="white" font-family="Arial" font-size="28" font-weight="bold">SELL</text>
<rect x="1440" y="700" width="80" height="55" rx="8" fill="#9ca3af"/><text x="1480" y="738" text-anchor="middle" fill="white" font-family="Arial" font-size="28" font-weight="bold">HOLD</text>
</svg>